<?xml version="1.0" encoding="UTF-8"?>
<!DOCTYPE svg PUBLIC "-//W3C//DTD SVG 1.1//EN" "http://www.w3.org/Graphics/SVG/1.1/DTD/svg11.dtd">
<svg xmlns="http://www.w3.org/2000/svg" version="1.1" width="413px" height="195px" style="shape-rendering:geometricPrecision; text-rendering:geometricPrecision; image-rendering:optimizeQuality; fill-rule:evenodd; clip-rule:evenodd" xmlns:xlink="http://www.w3.org/1999/xlink">
<g><path style="opacity:1" fill="#fefefe" d="M -0.5,-0.5 C 137.167,-0.5 274.833,-0.5 412.5,-0.5C 412.5,64.5 412.5,129.5 412.5,194.5C 274.833,194.5 137.167,194.5 -0.5,194.5C -0.5,129.5 -0.5,64.5 -0.5,-0.5 Z"/></g>
<g><path style="opacity:1" fill="#fad2ba" d="M 59.5,63.5 C 81.327,62.5026 103.327,62.1693 125.5,62.5C 125.831,84.673 125.497,106.673 124.5,128.5C 124.831,106.66 124.497,84.9936 123.5,63.5C 102.5,63.5 81.5,63.5 60.5,63.5C 60.1667,63.5 59.8333,63.5 59.5,63.5 Z"/></g>
<g><path style="opacity:1" fill="#ef742b" d="M 171.5,108.5 C 171.461,109.756 171.961,110.756 173,111.5C 173.5,100.839 173.667,90.1719 173.5,79.5C 173.611,78.8826 173.944,78.3826 174.5,78C 179.833,77.3333 185.167,77.3333 190.5,78C 197.903,80.6389 200.737,85.8056 199,93.5C 197.328,96.6556 195.495,99.6556 193.5,102.5C 194.174,105.666 196.174,107.166 199.5,107C 201.527,108.396 201.86,110.062 200.5,112C 193.266,113.047 188.599,110.047 186.5,103C 184.231,102.242 182.064,102.409 180,103.5C 179.667,106.167 179.333,108.833 179,111.5C 177.491,112.09 175.991,112.756 174.5,113.5C 182.189,121.45 191.522,124.283 202.5,122C 206.042,120.98 209.542,119.813 213,118.5C 215.59,119.687 216.09,121.52 214.5,124C 191.627,133.893 174.293,127.893 162.5,106C 158.833,105.333 155.167,105.333 151.5,106C 150.034,107.552 149.034,109.386 148.5,111.5C 144.394,113.23 142.894,111.897 144,107.5C 147.333,98.1667 150.667,88.8333 154,79.5C 156,76.8333 158,76.8333 160,79.5C 163.089,89.5824 166.922,99.2491 171.5,108.5 Z"/></g>
<g><path style="opacity:1" fill="#ef762d" d="M 201.5,77.5 C 209.84,77.3336 218.173,77.5003 226.5,78C 227.833,79.6667 227.833,81.3333 226.5,83C 223.518,83.498 220.518,83.6646 217.5,83.5C 217.832,92.8571 217.498,102.19 216.5,111.5C 215.232,112.428 213.899,112.595 212.5,112C 211.681,102.911 211.181,93.7444 211,84.5C 207.924,83.7117 204.758,83.2117 201.5,83C 200.248,81.1722 200.248,79.3388 201.5,77.5 Z"/></g>
<g><path style="opacity:1" fill="#ef752c" d="M 298.5,126.5 C 291.718,128.875 284.718,129.875 277.5,129.5C 267.662,126.248 258.662,121.414 250.5,115C 245.017,113.046 239.351,112.046 233.5,112C 233,111.5 232.5,111 232,110.5C 231.333,100.167 231.333,89.8333 232,79.5C 232.5,79 233,78.5 233.5,78C 240.167,77.3333 246.833,77.3333 253.5,78C 254.991,80.0217 254.658,81.6883 252.5,83C 247.582,83.1948 242.749,83.6948 238,84.5C 237.242,86.7695 237.409,88.9361 238.5,91C 242.167,91.3333 245.833,91.6667 249.5,92C 250.833,93.6667 250.833,95.3333 249.5,97C 245.833,97.3333 242.167,97.6667 238.5,98C 237.556,100.719 237.223,103.552 237.5,106.5C 241.582,106.344 245.582,106.844 249.5,108C 256.1,111.605 262.434,115.605 268.5,120C 275.161,123.232 282.161,124.232 289.5,123C 293.422,121.353 297.422,120.353 301.5,120C 302.059,120.725 302.392,121.558 302.5,122.5C 301.563,124.288 300.23,125.621 298.5,126.5 Z"/></g>
<g><path style="opacity:1" fill="#ef762d" d="M 290.5,77.5 C 296.593,77.1392 302.593,77.6392 308.5,79C 316.5,86.3333 316.5,93.6667 308.5,101C 304.251,102.126 299.918,102.792 295.5,103C 294.718,105.74 294.218,108.574 294,111.5C 292.062,112.86 290.396,112.527 289,110.5C 288.333,100.167 288.333,89.8333 289,79.5C 289.717,78.9558 290.217,78.2891 290.5,77.5 Z"/></g>
<g><path style="opacity:1" fill="#ef752c" d="M 332.5,77.5 C 347.596,77.0955 354.762,84.4288 354,99.5C 348.691,111.826 339.858,115.326 327.5,110C 316.833,100 316.833,90 327.5,80C 329.315,79.2432 330.981,78.4098 332.5,77.5 Z"/></g>
<g><path style="opacity:1" fill="#ef742b" d="M 259.5,77.5 C 260.552,77.3505 261.552,77.5172 262.5,78C 265,81.8717 267.834,85.3717 271,88.5C 273.858,85.2945 276.358,81.7945 278.5,78C 282.325,77.1639 283.825,78.6639 283,82.5C 279.594,86.1487 277.094,90.3153 275.5,95C 277.339,99.8421 279.839,104.342 283,108.5C 283.611,112.088 282.111,113.254 278.5,112C 276.377,108.049 273.711,104.549 270.5,101.5C 268.025,105.142 265.358,108.642 262.5,112C 258.912,112.611 257.746,111.111 259,107.5C 261.958,103.557 264.458,99.39 266.5,95C 264.403,90.6467 261.903,86.48 259,82.5C 258.36,80.735 258.527,79.0683 259.5,77.5 Z"/></g>
<g><path style="opacity:1" fill="#f9cdb1" d="M 173.5,79.5 C 173.667,90.1719 173.5,100.839 173,111.5C 171.961,110.756 171.461,109.756 171.5,108.5C 172.167,98.8333 172.833,89.1667 173.5,79.5 Z"/></g>
<g><path style="opacity:1" fill="#fef9f6" d="M 179.5,83.5 C 183.182,83.3347 186.848,83.5014 190.5,84C 194.654,88.399 194.321,92.399 189.5,96C 186.5,96.6667 183.5,96.6667 180.5,96C 179.536,91.9341 179.203,87.7675 179.5,83.5 Z"/></g>
<g><path style="opacity:1" fill="#f9cbaf" d="M 305.5,84.5 C 302.167,84.5 298.833,84.5 295.5,84.5C 295.5,88.1667 295.5,91.8333 295.5,95.5C 294.517,91.7016 294.183,87.7016 294.5,83.5C 298.371,83.185 302.038,83.5184 305.5,84.5 Z"/></g>
<g><path style="opacity:1" fill="#fefcfa" d="M 305.5,84.5 C 309.481,88.2141 309.481,92.0475 305.5,96C 301.973,96.8075 298.64,96.6408 295.5,95.5C 295.5,91.8333 295.5,88.1667 295.5,84.5C 298.833,84.5 302.167,84.5 305.5,84.5 Z"/></g>
<g><path style="opacity:1" fill="#fefaf7" d="M 332.5,83.5 C 343.826,82.3272 348.992,87.3272 348,98.5C 345.065,105.378 339.898,107.878 332.5,106C 326.456,102.551 324.29,97.3848 326,90.5C 327.694,87.6424 329.861,85.309 332.5,83.5 Z"/></g>
<g><path style="opacity:1" fill="#feece1" d="M 156.5,90.5 C 158.862,92.919 159.862,95.919 159.5,99.5C 157.5,99.5 155.5,99.5 153.5,99.5C 153.905,96.2854 154.905,93.2854 156.5,90.5 Z"/></g>
<g><path style="opacity:1" fill="#f6a879" d="M 59.5,63.5 C 59.8333,63.5 60.1667,63.5 60.5,63.5C 60.5,84.8333 60.5,106.167 60.5,127.5C 81.5,127.5 102.5,127.5 123.5,127.5C 123.5,106.167 123.5,84.8333 123.5,63.5C 124.497,84.9936 124.831,106.66 124.5,128.5C 102.833,128.5 81.1667,128.5 59.5,128.5C 59.5,106.833 59.5,85.1667 59.5,63.5 Z"/></g>
<g><path style="opacity:1" fill="#ee6d1e" d="M 60.5,63.5 C 81.5,63.5 102.5,63.5 123.5,63.5C 123.5,84.8333 123.5,106.167 123.5,127.5C 102.5,127.5 81.5,127.5 60.5,127.5C 60.5,106.167 60.5,84.8333 60.5,63.5 Z"/></g>
<g><path style="opacity:1" fill="#fef1ea" d="M 96.5,88.5 C 99.4206,88.1459 101.754,89.1459 103.5,91.5C 102.271,92.2811 100.938,92.7811 99.5,93C 97.69,95.6443 95.69,98.1443 93.5,100.5C 87.0583,104.27 83.225,102.603 82,95.5C 83.4659,97.3249 85.2992,97.8249 87.5,97C 90.3694,93.9621 93.3694,91.1288 96.5,88.5 Z"/></g>
<g><path style="opacity:1" fill="#fbdbc7" d="M 298.5,126.5 C 296.333,128.511 293.666,129.678 290.5,130C 285.98,130.814 281.646,130.647 277.5,129.5C 284.718,129.875 291.718,128.875 298.5,126.5 Z"/></g>
</svg>
